<svg width="20" height="19" viewBox="0 0 20 19" fill="none" xmlns="http://www.w3.org/2000/svg">
<path d="M4.02734 1.16715H7.63568C7.83362 1.16721 8.02416 1.24241 8.16879 1.37754C8.31343 1.51267 8.40138 1.69767 8.41487 1.89515C8.42836 2.09263 8.36639 2.28787 8.24148 2.44142C8.11656 2.59497 7.93802 2.69538 7.74193 2.72236L7.63568 2.72965H4.02734C3.43346 2.72958 2.8617 2.95496 2.4276 3.36025C1.9935 3.76553 1.72945 4.3205 1.6888 4.91299L1.68359 5.0734V14.9692C1.68352 15.5631 1.9089 16.1349 2.31419 16.569C2.71947 17.0031 3.27444 17.2671 3.86693 17.3078L4.02734 17.313H13.9232C14.5171 17.3131 15.0888 17.0877 15.5229 16.6824C15.957 16.2771 16.2211 15.7221 16.2617 15.1297L16.2669 14.9692V14.4505C16.2652 14.2512 16.3396 14.0589 16.4751 13.9127C16.6105 13.7665 16.7966 13.6776 16.9955 13.6642C17.1943 13.6508 17.3907 13.7138 17.5445 13.8404C17.6984 13.967 17.7981 14.1476 17.8232 14.3453L17.8294 14.4505V14.9692C17.8295 15.9692 17.4461 16.9312 16.7581 17.6569C16.0702 18.3827 15.1301 18.8169 14.1315 18.8703L13.9232 18.8755H4.02734C3.02735 18.8756 2.0654 18.4922 1.33965 17.8042C0.613904 17.1162 0.179635 16.1761 0.126302 15.1776L0.121094 14.9692V5.0734C0.121004 4.07341 0.504429 3.11146 1.19239 2.38571C1.88034 1.65996 2.82044 1.22569 3.81901 1.17236L4.02734 1.16715H7.63568H4.02734ZM12.1034 3.79215V0.906736C12.1033 0.763034 12.1428 0.622091 12.2177 0.499411C12.2925 0.376731 12.3997 0.277068 12.5275 0.211385C12.6554 0.145702 12.7988 0.116544 12.9421 0.127118C13.0854 0.137692 13.2231 0.187589 13.3398 0.27132L13.4253 0.343195L19.669 6.33278C19.9607 6.61194 19.9878 7.06194 19.7492 7.37132L19.669 7.45986L13.4253 13.4515C13.3216 13.5511 13.1926 13.6201 13.0523 13.6511C12.9119 13.6821 12.7658 13.6737 12.6299 13.627C12.494 13.5802 12.3736 13.4969 12.282 13.3862C12.1904 13.2755 12.1311 13.1417 12.1107 12.9994L12.1034 12.888V10.0494L11.7451 10.0807C9.24505 10.3411 6.84922 11.4661 4.54297 13.4765C4.0013 13.9484 3.16484 13.5026 3.25443 12.7911C3.94609 7.24944 6.84401 4.19528 11.7909 3.81194L12.1034 3.79111V0.906736V3.79215ZM13.6659 2.73903V4.55257C13.6659 4.75977 13.5836 4.95848 13.4371 5.105C13.2905 5.25151 13.0918 5.33382 12.8846 5.33382C8.84922 5.33382 6.34922 7.07965 5.26797 10.7057L5.18568 10.9963L5.55234 10.7494C7.88464 9.22653 10.3305 8.45882 12.8857 8.45882C13.0745 8.45883 13.2569 8.5272 13.3991 8.65129C13.5414 8.77537 13.634 8.94678 13.6596 9.13382L13.6669 9.24007V11.0557L17.9992 6.89632L13.6659 2.73903Z" fill="#152536"/>
</svg>
